HIERARCHY
ROOT Hips
{
	OFFSET 0.000000 8.830580 0.000000
	CHANNELS 6 Xposition Yposition Zposition Zrotation Yrotation Xrotation 
	JOINT Spine
	{
		OFFSET 0.000000 0.010000 0.000000
		CHANNELS 3 Zrotation Yrotation Xrotation
		JOINT Spine1
		{
			OFFSET 0.000000 2.459130 0.000000
			CHANNELS 3 Zrotation Yrotation Xrotation
			JOINT Neck
			{
				OFFSET 0.000000 2.484630 0.000000
				CHANNELS 3 Zrotation Yrotation Xrotation
				JOINT Head_virtual
				{
					OFFSET 0.000000 0.000000 0.000000
					CHANNELS 3 Zrotation Yrotation Xrotation
					JOINT Head
					{
						OFFSET 0.000000 0.927525 0.000000
						CHANNELS 3 Zrotation Yrotation Xrotation
						End Site
						{
							OFFSET 0.000000 0.000000 0.000000
						}
					}
				}
				JOINT LeftUpArm_virtual
				{
					OFFSET 0.000000 0.000000 0.000000
					CHANNELS 3 Zrotation Yrotation Xrotation
					JOINT LeftUpArm
					{
						OFFSET 1.248820 0.000000 0.000000
						CHANNELS 3 Zrotation Yrotation Xrotation
						JOINT LeftForeArm
						{
							OFFSET 2.597580 0.000000 0.000000
							CHANNELS 3 Zrotation Yrotation Xrotation
							JOINT LeftHand
							{
								OFFSET 2.455420 0.000000 0.000000
								CHANNELS 3 Zrotation Yrotation Xrotation
								End Site
								{
									OFFSET 0.000000 0.000000 0.000000
								}
							}
						}
					}
				}
				JOINT RightUpArm_virtual
				{
					OFFSET -0.000000 -0.000000 -0.000000
					CHANNELS 3 Zrotation Yrotation Xrotation
					JOINT RightUpArm
					{
						OFFSET -1.248820 -0.000000 -0.000000
						CHANNELS 3 Zrotation Yrotation Xrotation
						JOINT RightForeArm
						{
							OFFSET -2.597580 -0.000000 -0.000000
							CHANNELS 3 Zrotation Yrotation Xrotation
							JOINT RightHand
							{
								OFFSET -2.455420 -0.000000 -0.000000
								CHANNELS 3 Zrotation Yrotation Xrotation
								End Site
								{
									OFFSET 0.000000 0.000000 0.000000
								}
							}
						}
					}
				}
			}
		}
	}
	JOINT LeftUpLeg
	{
		OFFSET 1.271939 0.000000 0.000000
		CHANNELS 3 Zrotation Yrotation Xrotation
		JOINT LeftLowLeg
		{
			OFFSET 0.000000 -4.342910 0.000000
			CHANNELS 3 Zrotation Yrotation Xrotation
			JOINT LeftFoot
			{
				OFFSET 0.000000 -4.487670 0.000000
				CHANNELS 3 Zrotation Yrotation Xrotation
				JOINT LeftToeBase
				{
					OFFSET 0.000000 0.000000 1.515070
					CHANNELS 3 Zrotation Yrotation Xrotation
					End Site
					{
						OFFSET 0.000000 0.000000 0.000000
					}
				}
			}
		}
	}
	JOINT RightUpLeg
	{
		OFFSET -1.271939 0.000000 0.000000
		CHANNELS 3 Zrotation Yrotation Xrotation
		JOINT RightLowLeg
		{
			OFFSET 0.000000 -4.342910 0.000000
			CHANNELS 3 Zrotation Yrotation Xrotation
			JOINT RightFoot
			{
				OFFSET 0.000000 -4.487670 0.000000
				CHANNELS 3 Zrotation Yrotation Xrotation
				JOINT RightToeBase
				{
					OFFSET 0.000000 0.000000 1.515070
					CHANNELS 3 Zrotation Yrotation Xrotation
					End Site
					{
						OFFSET 0.000000 0.000000 0.000000
					}
				}
			}
		}
	}
}
MOTION
Frames: 11
Frame Time: 0.041667
-16.612524 9.004262 40.444995 -176.044576 -0.087986 -164.043636 6.622683 0.327633 -27.910397 -1.535435 -0.221651 9.844904 0.000000 0.000000 0.000000 10.238117 7.640846 -1.491378 -11.364703 -4.433031 -70.349433 -30.174801 -4.454580 10.134000 -39.240002 -26.569300 21.451799 0.000000 -29.232300 0.000000 17.231100 5.826620 27.445000 31.629700 -1.495750 5.872160 38.655499 16.052999 19.955994 0.000000 27.583799 0.000000 -8.470290 -1.922740 5.149600 6.301054 -23.140039 -13.738893 0.000000 0.000000 4.713510 -1.011055 21.294746 -3.097144 0.000000 0.000000 -11.045130 0.418268 30.673666 -14.301623 0.000000 0.000000 5.382160 3.322777 -28.017167 3.162767 0.000000 0.000000 -18.138930 
-16.613978 9.005460 40.451502 -176.037107 -0.199449 -164.133477 6.579938 0.315916 -27.845360 -1.482784 -0.197189 9.786888 0.000000 0.000000 0.000000 10.191123 7.618280 -1.317573 -11.225877 -4.569350 -70.321951 -30.127399 -4.677920 10.329100 -39.283699 -27.851700 20.421000 0.000000 -30.655899 0.000000 17.447100 5.586600 26.623400 31.546101 -1.384670 5.970200 38.495800 16.707800 20.069000 0.000000 28.344999 0.000000 -8.883790 -1.707720 5.153750 6.306289 -23.177546 -13.745985 0.000000 0.000000 4.780330 -1.022699 21.210965 -3.062552 0.000000 0.000000 -11.029540 0.479012 30.570302 -14.256405 0.000000 0.000000 5.432890 3.377897 -27.997064 3.172374 0.000000 0.000000 -18.146240 
-16.615019 9.006118 40.457317 -176.019539 -0.269091 -164.177499 6.559457 0.357355 -27.815388 -1.484537 -0.150707 9.772465 0.000000 0.000000 0.000000 10.179213 7.572220 -1.233623 -11.126289 -4.657877 -70.275785 -30.100500 -4.842320 10.452200 -39.308701 -28.869400 19.507700 0.000000 -32.277302 0.000000 17.570900 5.384520 26.880600 31.430799 -1.279400 5.963480 38.509399 17.193701 20.244995 0.000000 28.937000 0.000000 -9.285650 -1.309050 5.275620 6.337172 -23.203241 -13.780158 0.000000 0.000000 4.832550 -0.982997 21.166579 -3.019695 0.000000 0.000000 -11.086120 0.511048 30.531915 -14.264931 0.000000 0.000000 5.477870 3.360489 -28.027472 3.209761 0.000000 0.000000 -18.164220 
-16.616401 9.007032 40.462153 -176.021912 -0.316814 -164.277890 6.541832 0.406186 -27.752858 -1.531124 -0.105643 9.819287 0.000000 0.000000 0.000000 10.246578 7.485933 -1.192151 -11.151050 -4.691373 -70.253786 -30.068100 -4.977370 10.531300 -39.339298 -29.622499 18.998199 0.000000 -33.909698 0.000000 17.927601 5.111640 26.102600 31.322500 -1.204890 5.943250 38.546700 17.545799 20.507996 0.000000 29.536400 0.000000 -9.383770 -1.207290 4.737440 6.316973 -23.245222 -13.733514 0.000000 0.000000 4.856760 -1.188810 21.071828 -3.089366 0.000000 0.000000 -10.950510 0.558163 30.480262 -14.188639 0.000000 0.000000 5.498320 3.350729 -28.026033 3.245642 0.000000 0.000000 -18.180870 
-16.617048 9.007776 40.465328 -176.019461 -0.319499 -164.319391 6.540781 0.476237 -27.752142 -1.586294 -0.052009 9.897204 0.000000 0.000000 0.000000 10.263919 7.430952 -1.205917 -11.178040 -4.724653 -70.258745 -29.997499 -5.015070 10.574200 -39.418800 -30.156900 18.691601 0.000000 -35.586800 0.000000 18.220301 4.873830 25.790600 31.233101 -1.171030 5.928510 38.635700 17.852600 20.828003 0.000000 29.982201 0.000000 -9.425890 -1.101460 4.552590 6.323841 -23.307037 -13.714198 0.000000 0.000000 4.853000 -1.137193 21.123619 -3.025573 0.000000 0.000000 -10.994990 0.574752 30.453475 -14.172493 0.000000 0.000000 5.520160 3.360109 -28.000470 3.261978 0.000000 0.000000 -18.183880 
-16.616755 9.008624 40.467880 -176.019757 -0.291970 -164.383195 6.516979 0.520658 -27.717742 -1.578380 0.003694 9.976480 0.000000 0.000000 0.000000 10.124132 7.483368 -1.204392 -11.040344 -4.832044 -70.323476 -29.933901 -4.977570 10.592500 -39.558201 -30.478100 18.526400 0.000000 -37.153702 0.000000 18.241100 4.538860 24.660900 31.153900 -1.127620 5.991910 38.722900 18.063299 20.992004 0.000000 30.325199 0.000000 -9.177220 -1.081600 4.495540 6.297333 -23.284213 -13.654053 0.000000 0.000000 4.848830 -1.171549 21.099678 -3.001071 0.000000 0.000000 -11.025270 0.600758 30.451869 -14.124541 0.000000 0.000000 5.529790 3.361162 -27.978936 3.293722 0.000000 0.000000 -18.163230 
-16.616356 9.009165 40.469890 -176.018290 -0.243993 -164.464978 6.507249 0.581867 -27.636047 -1.585100 0.052408 10.020804 0.000000 0.000000 0.000000 10.186600 7.328311 -1.267037 -11.142561 -4.887971 -70.284781 -29.882000 -4.894000 10.589700 -39.735100 -30.517900 18.368200 0.000000 -38.653301 0.000000 18.316000 4.231170 24.198099 31.148399 -1.075940 6.092980 38.731400 18.106199 21.238007 0.000000 30.643900 0.000000 -9.008600 -1.117090 4.756170 6.251555 -23.220673 -13.562270 0.000000 0.000000 4.846120 -1.112672 21.086675 -2.950427 0.000000 0.000000 -11.074350 0.640537 30.445363 -14.057981 0.000000 0.000000 5.552710 3.343537 -27.926610 3.321903 0.000000 0.000000 -18.171860 
-16.615399 9.009642 40.471380 -176.005308 -0.170083 -164.507876 6.497372 0.639635 -27.594065 -1.553030 0.107654 10.112218 0.000000 0.000000 0.000000 10.121551 7.253014 -1.342479 -11.047412 -5.022000 -70.326429 -29.848400 -4.783710 10.554600 -39.951099 -30.340500 18.273100 0.000000 -39.939701 0.000000 18.308300 3.786340 23.910101 31.202999 -1.027140 6.150400 38.664501 18.034401 21.584991 0.000000 30.862400 0.000000 -8.731730 -1.215370 4.857920 6.208259 -23.033962 -13.504084 0.000000 0.000000 4.857720 -1.319839 20.894611 -3.067606 0.000000 0.000000 -10.938340 0.671346 30.444424 -14.039603 0.000000 0.000000 5.584650 3.325053 -27.864550 3.347606 0.000000 0.000000 -18.169970 
-16.613945 9.009898 40.472308 -175.993922 -0.057974 -164.525137 6.476849 0.707319 -27.566780 -1.510230 0.182448 10.206753 0.000000 0.000000 0.000000 10.000567 7.249375 -1.376890 -10.748894 -5.199010 -70.449822 -29.840300 -4.649470 10.519100 -40.154800 -29.993500 18.371099 0.000000 -40.961498 0.000000 18.362200 3.455450 23.426500 31.260099 -1.022210 6.196060 38.667500 17.848101 21.833008 0.000000 30.941500 0.000000 -8.172040 -1.381060 4.417050 6.175740 -22.878462 -13.456444 0.000000 0.000000 4.859830 -1.304505 20.837073 -3.067609 0.000000 0.000000 -10.961710 0.668667 30.511318 -14.067705 0.000000 0.000000 5.640140 3.346175 -27.815541 3.349938 0.000000 0.000000 -18.188630 
-16.611784 9.009972 40.472013 -175.969538 0.037051 -164.533565 6.467836 0.775172 -27.570538 -1.493479 0.249841 10.346099 0.000000 0.000000 0.000000 10.146069 7.052620 -1.461141 -10.608332 -5.275988 -70.471984 -29.835100 -4.543570 10.486100 -40.287701 -29.446800 18.582199 0.000000 -41.699799 0.000000 18.243200 3.226850 22.537600 31.310900 -1.038360 6.239150 38.747002 17.574800 22.221985 0.000000 30.765499 0.000000 -8.086500 -1.202330 4.516630 6.172867 -22.752814 -13.419518 0.000000 0.000000 4.868830 -1.372163 20.766742 -3.118163 0.000000 0.000000 -10.995090 0.688125 30.587675 -14.090362 0.000000 0.000000 5.682500 3.294585 -27.817978 3.389376 0.000000 0.000000 -18.201830 
-16.610007 9.009548 40.472157 -175.966577 0.155536 -164.532109 6.466037 0.868869 -27.549537 -1.558602 0.321374 10.480266 0.000000 0.000000 0.000000 10.489946 6.739625 -1.574820 -10.491922 -5.272010 -70.423963 -29.830601 -4.463750 10.421900 -40.364799 -28.711399 18.972200 0.000000 -42.127499 0.000000 17.982800 3.085290 21.632401 31.389700 -1.075080 6.271350 38.868099 17.254601 22.742004 0.000000 30.414400 0.000000 -8.146790 -1.224410 4.523800 6.158631 -22.689559 -13.411241 0.000000 0.000000 4.908620 -1.329927 20.825784 -3.134151 0.000000 0.000000 -11.052340 0.668669 30.674922 -14.139674 0.000000 0.000000 5.745050 3.267620 -27.802297 3.385154 0.000000 0.000000 -18.196050 
